<svg width="1112" height="413" viewBox="0 0 1112 413" fill="none" xmlns="http://www.w3.org/2000/svg">
<path fill-rule="evenodd" clip-rule="evenodd" d="M1132 126L1132 43.194C1090 43.194 1076.58 33.5655 976.5 82.4999C915 112.571 760.401 109.509 687.001 63.6052C613.601 17.7009 523.4 46.391 450 63.6052C376.6 80.8193 340 104.938 244.2 112.571C159.5 119.319 99.4999 68 60.4999 44.5L2.99994 6L2.99994 391.794L60.6999 370.923C150 345.069 148 318.294 244.2 370.923C388 466.869 548.601 352.419 622.001 352.419C695.401 352.419 692.101 394.419 765.501 394.419C838.901 394.419 881.1 352.419 954.5 352.419C1027.9 352.419 1038 366.594 1076.5 378.144L1132 403.869L1132 126Z" fill="#00B0A6" stroke="#F3DD57" stroke-width="6"/>
</svg>
